<svg id="Layer_1" data-name="Layer 1" xmlns="http://www.w3.org/2000/svg" viewBox="0 0 829.51 829.51"><defs><style>.cls-1{fill:#ee3342;}.cls-2{fill:#fcfaf6;}</style></defs><circle class="cls-1" cx="414.76" cy="414.76" r="414.76"/><path class="cls-2" d="M522.1,592.86a173.67,173.67,0,0,0,5.73,23.35l.39,2c.18.68.37,1.36.55,2q2.19,9.56,4.39,19.12l.53,1.84c1.27,5.83,2.34,11.72,3.84,17.5,3.09,11.9,4.3,23.71-.72,35.42-12.62,18-33.31,22.73-49.88,11.45-9.68-6.58-14.41-16.25-17-27.31-7-30-14.27-59.89-20.88-90-2.95-13.42-8.64-24.12-19.49-33.32-21.7-18.4-42.17-38.26-63.17-57.48-4.43-4.05-4.55-4-6.13,1.63q-12.86,46.17-25.59,92.36a25.65,25.65,0,0,1-6.34,11c-28.13,30.46-56.51,60.71-83.81,91.93-8.12,9.28-16.85,16.78-30.26,16.92-14,.15-24.07-5.85-30.73-17.69s-5.88-24.13,1.24-35.56,17.3-20.2,26.27-30c19-20.8,38.09-41.44,57.18-62.13,2.72-3,3.62-6.71,4.76-10.33q17.64-56.18,35.16-112.4c4.25-13.65,8.41-27.32,12.62-41l.25-.94c4.5-13.86,9.17-27.67,13.45-41.6,7.1-23.14,14.86-46.08,21.23-69.44l.69-2c1-2.19,1.93-4.4,1.53-6.9q2.58-5.88,5.14-11.76c3.91-.66,7.38-2.52,11-3.95v0c1,0,1.73-.26,1.95-1.34a3.91,3.91,0,0,0,.83-.09c4.21,0,7.84-2.19,11.81-3.14a70.06,70.06,0,0,1,12.18-1.94l5,.2c6.23,1.26,12.22,3.14,17.45,6.9l1.5,1.26,4.87,4.25,53.89,46.63q8.73,7.53,17.47,15.08c1.33,1.15,2.64,2.11,4.09.18l0,0c11-6.94,21.91-13.91,32.9-20.79,2.14-1.34,2.69-2.79,2.18-5.36-2.43-12.24-4.36-24.58-7-36.78-1.14-5.38-.83-10.2,2-14.87l0,0,1-1.44-.26,0,0,.27,1.28-1.24-.27,0,0,.28,1.77-1.44.05,0c11.85-5.84,18.88-3.89,25.71,7.12,2.26,10.27,4.52,20.53,6.86,31.19,4.57-2.58,9.5-2.85,14.45-3l.33.32.46-.06a40.55,40.55,0,0,1,13,5l6.82,6.58,2.1,3.12,0,0c.48,1.6.81,3.27,2.07,4.52l.09.27,1,4.05a53.91,53.91,0,0,1-.66,12l-.24,1a44.87,44.87,0,0,1-8.28,12.83l-3.81,2.77c-11.51,5.91-21.72,13.89-32.7,20.65-8.19,5.05-16.15,10.45-24.21,15.7l-4.09,2.69-16,10.13.07,0-1.4,1,.05-.18a5.4,5.4,0,0,0-2.93,2l0,0-8.71,4.8h0a40.63,40.63,0,0,1-21.93,2.64l-1.84-.62-4.15-1.35-1.71-.8c-10.86-6.41-19.08-16-28.82-23.78-.77-.62-1.57-1.21-2.35-1.81a6.15,6.15,0,0,0-3.26-2.68,47.78,47.78,0,0,0-8.33-7.42l0,.07L435,359.84l.06.26.26-.07-1.49-1.53-.2-.2-1.7-1.29.18.19-1.19-1.15.13.05c-.84-1.38-1.93-2.81-3.58-2.66-1.12.11-1.09,1.72-1.17,2.82l-.48,2a3.77,3.77,0,0,0-1.1,3v.27a3.4,3.4,0,0,0-1.05,2.64,251.23,251.23,0,0,0-7.79,26.08,76.51,76.51,0,0,0-4.25,15l-.11.26c-3,9.86-6.27,19.63-8.76,29.6-1.3,5.19,3.78,6.66,7.16,8.83l0,0c2.17,4,6.13,6.27,9.33,9.25,5.67,5.29,11.63,10.29,17.47,15.42l2.05,1.85,56.69,50.93.07,0,1.26,1.21-.25-.21,1.3,1.13h-.12a62.9,62.9,0,0,1,11.05,15.94q3.06,11.42,6.14,22.82c1.34,6.53,2.47,13.11,4.67,19.43a.34.34,0,0,0,.13.57L522,592.49Z"/><path class="cls-2" d="M327.91,283.37A59,59,0,0,0,324,296.29a61.19,61.19,0,0,0-4,13,3.7,3.7,0,0,0-1,3,.89.89,0,0,0-.19.87c-1.2,1.5-1.08,3.42-1.61,5.13a.62.62,0,0,0-.19.75l-.9,3.23-5.65,18.86a65.06,65.06,0,0,0-3.8,12.12l-.44.9v.07l-.05.22q-1.6,5.42-3.19,10.82c-.09.31-.17.63-.25.94-3.21,10.12-6.09,20.37-9.7,30.34-7.7,21.24-26.32,33.81-48.36,33.14-22.69-.7-41.46-14.91-48.22-36.08a51.71,51.71,0,0,1-.41-30.9c10.4-36.09,21-72.13,32.44-107.92,2.17-6.79,3.49-13.88,6.66-20.35,5.18-10.59,13.2-18.6,22.92-25.06a6.56,6.56,0,0,0,3.5-1.82l1.49-.56,13.86-4.59c11.26-1.06,22.29-.44,32.71,4.54l1.67.86.17.11,4.33,2.59,9,7.94c6.29,8.25,10.4,17.37,11.1,27.85l0,1c0,1,0,2,0,3q-.75,5.09-1.48,10.17a.41.41,0,0,0-.26.61c-.39,1.73-.79,3.46-1.18,5.2l-.84,2.77q-1.59,5.13-3.19,10.25a1.08,1.08,0,0,0-.21.95,2,2,0,0,0-.72,2.06C328,282.65,328,283,327.91,283.37Z"/><path class="cls-2" d="M368.8,177.28q1.06-7.49,2.14-15a.91.91,0,0,0,.44-.79c2.83-7.42,5.64-14.84,10.68-21.15l1.78-2.16c23.25-24.59,58.22-26.94,83.9-6.63l1,.79A91,91,0,0,1,482,148.29q1,2,2.06,4,2.19,6.08,4.4,12.13a67,67,0,0,1-3,36.39l.14,0-.63,1.45a.42.42,0,0,0-.18.6l-1.53,2.93-.06.11q-1.58,3-3.17,6c-3.07,4.44-6.84,8.29-10.5,12.22-9.19,7.72-19.86,12.2-31.61,14.27a79,79,0,0,1-32-3.32c-.42-.34-.86-.9-1.22.07-.16-1-.88-1.26-1.75-1.31l.15.23.22-.15a3,3,0,0,0-2.83-1l.08.26.27-.08a1.77,1.77,0,0,0-1.84-1.27l.29-.07L389,224l-8.91-10,0,0C373.37,202.73,368.82,190.7,368.8,177.28Z"/><path class="cls-2" d="M563.71,424.24q-2.38-12.5-4.76-25c0-.67,0-1.34,0-2l17.34-11.54,0,0a11.75,11.75,0,0,0,4.94-3l0,0c2.82-.47,4.27-4,7.57-3.41a7.26,7.26,0,0,0,.89,4l.15,1,.33,2.94,6.78,32c.14.72.29,1.45.43,2.18.45,3.47.78,7,2.29,10.2a82.52,82.52,0,0,0,3,14.68,12.28,12.28,0,0,0,1.1,6l.37,2.22a.5.5,0,0,0,.11.69c.28,1.36.57,2.72.85,4.07l.15,1.06c.16,1.14.27,2.3.49,3.44q13.34,67.45,26.67,134.92,6.2,31.27,12.46,62.54,1.64,9.1,3.26,18.21a.44.44,0,0,0,.17.63c.7,4.1,1.51,8.18,2.07,12.3,1.22,9-3.7,16.33-12.28,18.44-8.2,2-16-2.12-19.07-10.44-4-10.68-4.63-22.11-7.18-33.12-.79-3.4-1.53-6.81-2.29-10.21a.41.41,0,0,0-.12-.62Q608,649.18,606.51,642c-.19-.59-.37-1.18-.55-1.78a39.2,39.2,0,0,0-2-11c-.17-1-.35-2-.52-2.95a164.94,164.94,0,0,0-4.27-20.28l.09.16c-2.43-16.43-6.1-32.62-9.46-48.86l-.12-1c-.66-3.33-1.31-6.66-2-10l-.43-2.13-9.63-50.64,0-.13q-.63-2.71-1.28-5.41l0-.09-2.13-10.72c-.27-2-.14-4.09-1.29-5.9-2.41-15.11-5.58-30.08-9-45Z"/></svg>